<svg width="31" height="30" viewBox="0 0 31 30" fill="none" xmlns="http://www.w3.org/2000/svg">
<path d="M0.349121 2.14901C0.349121 0.962462 1.33539 0 2.55209 0H28.1462C29.3628 0 30.3491 0.962466 30.3491 2.14901V27.851C30.3491 29.0379 29.3628 30 28.1462 30L2.55209 30C1.33539 30 0.349121 29.0379 0.349121 27.851V2.14901ZM7.36663 25.1131C8.61 25.1131 9.61796 24.1051 9.61796 22.8618V13.8178C9.61796 12.5744 8.61 11.5664 7.36663 11.5664C6.12325 11.5664 5.11529 12.5744 5.11529 13.8178V22.8618C5.11529 24.1052 6.12325 25.1131 7.36663 25.1131ZM7.3666 9.71686C8.93677 9.71686 9.91408 8.67662 9.91408 7.37663C9.88481 6.04738 8.93678 5.03601 7.39639 5.03601C5.85617 5.03601 4.84912 6.04738 4.84912 7.37663C4.84912 8.67662 5.82621 9.71686 7.33726 9.71686H7.3666ZM14.3247 25.1131C15.565 25.1131 16.5705 24.1076 16.5705 22.8673V17.5481C16.5705 17.1432 16.5998 16.7387 16.7187 16.4493C17.0441 15.6404 17.785 14.8026 19.0289 14.8026C20.6582 14.8026 21.31 16.0448 21.31 17.8659V22.862C21.31 24.1052 22.3178 25.1131 23.5611 25.1131C24.8044 25.1131 25.8122 24.1052 25.8122 22.862V17.3456C25.8122 13.1847 23.5908 11.2485 20.6284 11.2485C18.2399 11.2485 17.169 12.5613 16.5706 13.4844V13.5204C16.5706 13.5263 16.5659 13.531 16.56 13.531C16.5516 13.531 16.5465 13.5218 16.551 13.5147C16.5575 13.5046 16.564 13.4945 16.5706 13.4844C16.5706 12.4251 15.7119 11.5664 14.6527 11.5664H14.3716C13.117 11.5664 12.0885 12.612 12.0921 13.8665C12.0993 16.4067 12.0871 20.3795 12.0775 22.8602C12.0727 24.1047 13.0801 25.1131 14.3247 25.1131Z" fill="white"/>
</svg>
