<svg width="30" height="30" viewBox="0 0 30 30" fill="none" xmlns="http://www.w3.org/2000/svg">
<path d="M15 1.875C17.0711 1.875 18.75 3.55393 18.75 5.625V13.125H11.25V5.625C11.25 3.55393 12.9289 1.875 15 1.875ZM20.625 13.125V5.625C20.625 2.5184 18.1066 0 15 0C11.8934 0 9.375 2.5184 9.375 5.625V13.125C7.30393 13.125 5.625 14.8039 5.625 16.875V26.25C5.625 28.3211 7.30393 30 9.375 30H20.625C22.6961 30 24.375 28.3211 24.375 26.25V16.875C24.375 14.8039 22.6961 13.125 20.625 13.125Z" fill="#2BB3AA"/>
</svg>
