<svg width="201" height="200" viewBox="0 0 201 200" fill="none" xmlns="http://www.w3.org/2000/svg">
<path d="M138 75C138 95.7107 121.211 112.5 100.5 112.5C79.7893 112.5 63 95.7107 63 75C63 54.2893 79.7893 37.5 100.5 37.5C121.211 37.5 138 54.2893 138 75Z" fill="#2BB3AA"/>
<path fill-rule="evenodd" clip-rule="evenodd" d="M0.5 100C0.5 44.7715 45.2715 0 100.5 0C155.728 0 200.5 44.7715 200.5 100C200.5 155.228 155.728 200 100.5 200C45.2715 200 0.5 155.228 0.5 100ZM100.5 12.5C52.1751 12.5 13 51.6751 13 100C13 120.668 20.1657 139.662 32.1483 154.634C41.0366 140.316 60.558 125 100.5 125C140.442 125 159.963 140.316 168.852 154.634C180.834 139.662 188 120.668 188 100C188 51.6751 148.825 12.5 100.5 12.5Z" fill="#2BB3AA"/>
</svg>
