<svg width="20" height="20" viewBox="0 0 20 20" fill="none" xmlns="http://www.w3.org/2000/svg">
<path d="M10.625 6.99997C10.625 6.65479 10.3452 6.37497 9.99998 6.37497C9.65481 6.37497 9.37498 6.65479 9.37498 6.99997L9.375 10.625H5.625C5.27982 10.625 5 10.9048 5 11.25C5 11.5952 5.27982 11.875 5.625 11.875H10C10.1658 11.875 10.3247 11.8092 10.4419 11.6919C10.5592 11.5747 10.625 11.4158 10.625 11.25L10.625 6.99997Z" fill="#30B2AD"/>
<path d="M8.125 1.25C8.125 0.904822 8.40482 0.625 8.75 0.625H11.25C11.5952 0.625 11.875 0.904822 11.875 1.25C11.875 1.59518 11.5952 1.875 11.25 1.875V2.58868C12.9498 2.83191 14.492 3.56354 15.7298 4.63684C15.7348 4.63143 15.74 4.62608 15.7453 4.62081L16.1872 4.17887L15.7453 3.73692C15.5012 3.49285 15.5012 3.09712 15.7453 2.85304C15.9893 2.60896 16.3851 2.60896 16.6292 2.85304L18.3969 4.62081C18.641 4.86489 18.641 5.26061 18.3969 5.50469C18.1528 5.74877 17.7571 5.74877 17.513 5.50469L17.0711 5.06275L16.6292 5.50469C16.6239 5.50996 16.6185 5.5151 16.6131 5.52014C17.9444 7.05521 18.75 9.05846 18.75 11.25C18.75 16.0825 14.8325 20 10 20C5.16751 20 1.25 16.0825 1.25 11.25C1.25 6.84184 4.50936 3.19549 8.75 2.58868V1.875C8.40482 1.875 8.125 1.59518 8.125 1.25ZM10 3.75C9.80554 3.75 9.61293 3.75739 9.42241 3.77188C5.55048 4.06642 2.5 7.30227 2.5 11.25C2.5 15.3921 5.85786 18.75 10 18.75C14.1421 18.75 17.5 15.3921 17.5 11.25C17.5 7.30227 14.4495 4.06642 10.5776 3.77188C10.3871 3.75739 10.1945 3.75 10 3.75Z" fill="#30B2AD"/>
</svg>
