<svg width="31" height="30" viewBox="0 0 31 30" fill="none" xmlns="http://www.w3.org/2000/svg">
<path d="M30.3491 15C30.3491 23.2843 23.6334 30 15.3491 30C7.06485 30 0.349121 23.2843 0.349121 15C0.349121 6.71573 7.06485 0 15.3491 0C23.6334 0 30.3491 6.71573 30.3491 15ZM15.8867 11.0737C14.4278 11.6806 11.5119 12.9366 7.13906 14.8417C6.42899 15.1241 6.05702 15.4003 6.02316 15.6704C5.96593 16.1269 6.53759 16.3067 7.31604 16.5515C7.42193 16.5848 7.53164 16.6193 7.64412 16.6558C8.40999 16.9048 9.44023 17.196 9.97581 17.2076C10.4616 17.2181 11.0039 17.0178 11.6025 16.6067C15.6881 13.8488 17.7972 12.4548 17.9296 12.4248C18.023 12.4036 18.1524 12.3769 18.2402 12.4549C18.3279 12.5328 18.3192 12.6805 18.3099 12.7201C18.2533 12.9615 16.0094 15.0477 14.8481 16.1273C14.4861 16.4638 14.2293 16.7026 14.1768 16.7571C14.0592 16.8792 13.9394 16.9948 13.8242 17.1058C13.1127 17.7917 12.5791 18.3061 13.8537 19.146C14.4662 19.5497 14.9564 19.8835 15.4454 20.2165C15.9794 20.5801 16.5121 20.9429 17.2012 21.3946C17.3768 21.5097 17.5445 21.6293 17.7078 21.7457C18.3293 22.1888 18.8876 22.5868 19.5774 22.5233C19.9782 22.4864 20.3923 22.1096 20.6025 20.9855C21.0995 18.329 22.0762 12.5731 22.302 10.2013C22.3217 9.99349 22.2969 9.72754 22.2769 9.61079C22.2569 9.49405 22.2152 9.32771 22.0634 9.20458C21.8837 9.05875 21.6062 9.028 21.4822 9.03018C20.918 9.04012 20.0524 9.3411 15.8867 11.0737Z" fill="white"/>
</svg>
